<mxfile host="app.diagrams.net" modified="2023-12-02T04:39:53.144Z" agent="Mozilla/5.0 (Windows NT 10.0; Win64; x64) AppleWebKit/537.36 (KHTML, like Gecko) Chrome/119.0.0.0 Safari/537.36" version="22.1.5" etag="XOwo_PT3NPDjrGMHknZ7" type="github">
  <diagram name="第 1 页" id="7hjx3RhZbV1R6svGPvZ2">
    <mxGraphModel>
      <root>
        <mxCell id="0" />
        <mxCell id="1" parent="0" />
      </root>
    </mxGraphModel>
  </diagram>
</mxfile>
